<svg width="32" height="32" viewBox="0 0 32 32" fill="none" xmlns="http://www.w3.org/2000/svg">
<rect width="32" height="32" rx="4" fill="black"/>
<path d="M14.638 24H8C7.46957 24 6.96086 23.7893 6.58579 23.4142C6.21071 23.0391 6 22.5304 6 22V9C6 8.46956 6.21071 7.96086 6.58579 7.58578C6.96086 7.21071 7.46957 7 8 7H11.9C12.2345 6.99672 12.5645 7.07739 12.8597 7.23462C13.1549 7.39185 13.406 7.62062 13.59 7.9L14.4 9.1C14.5821 9.37653 14.83 9.60352 15.1215 9.7606C15.413 9.91768 15.7389 9.99994 16.07 10H24C24.5304 10 25.0391 10.2107 25.4142 10.5858C25.7893 10.9609 26 11.4696 26 12V15.417" stroke="white" stroke-width="2" stroke-linecap="round" stroke-linejoin="round"/>
<path d="M21.8104 17.1084C21.8279 17.0758 21.855 17.0485 21.8886 17.0293C21.9221 17.0101 21.9608 17 22.0004 17C22.0399 17 22.0786 17.0101 22.1122 17.0293C22.1457 17.0485 22.1728 17.0758 22.1903 17.1084L23.1143 18.8282C23.1751 18.9414 23.265 19.0393 23.3761 19.1136C23.4872 19.1878 23.6163 19.2362 23.7522 19.2545L25.8184 19.5324C25.8576 19.5376 25.8943 19.5528 25.9246 19.5762C25.9549 19.5996 25.9774 19.6304 25.9896 19.6649C26.0018 19.6995 26.0033 19.7365 25.9938 19.7718C25.9844 19.8071 25.9643 19.8393 25.936 19.8647L24.4417 21.2018C24.3432 21.2901 24.2695 21.399 24.2269 21.5193C24.1843 21.6395 24.1742 21.7675 24.1974 21.8921L24.5501 23.7813C24.557 23.8173 24.5528 23.8543 24.5379 23.8882C24.523 23.922 24.4981 23.9514 24.466 23.9728C24.4338 23.9943 24.3957 24.007 24.3561 24.0095C24.3165 24.0121 24.2768 24.0043 24.2418 23.9871L22.3947 23.0947C22.273 23.036 22.1376 23.0053 22.0002 23.0053C21.8627 23.0053 21.7273 23.036 21.6056 23.0947L19.759 23.9871C19.7239 24.0042 19.6843 24.0119 19.6448 24.0093C19.6052 24.0067 19.5672 23.994 19.5351 23.9725C19.503 23.9511 19.4781 23.9218 19.4633 23.888C19.4484 23.8542 19.4441 23.8172 19.451 23.7813L19.8034 21.8925C19.8266 21.7678 19.8165 21.6397 19.774 21.5194C19.7314 21.3991 19.6576 21.2901 19.559 21.2018L18.0647 19.865C18.0362 19.8397 18.0159 19.8075 18.0063 19.7721C17.9967 19.7367 17.9981 19.6995 18.0104 19.6648C18.0226 19.6301 18.0452 19.5992 18.0756 19.5758C18.106 19.5523 18.143 19.5371 18.1823 19.532L20.2481 19.2545C20.3842 19.2363 20.5134 19.188 20.6247 19.1138C20.736 19.0395 20.8259 18.9415 20.8869 18.8282L21.8104 17.1084Z" fill="#EDBD00"/>
</svg>
