<svg
  width="32"
  height="32"
  viewBox="0 0 32 32"
  fill="none"
  xmlns="http://www.w3.org/2000/svg"
>
  <path
    d="M14.638 24H8a2 2 0 01-2-2V9a2 2 0 012-2h3.9a2 2 0 011.69.9l.81 1.2a2 2 0 001.67.9H24a2 2 0 012 2v3.417"
    stroke="#FFFFFF"
    strokeWidth="2"
    strokeLinecap="round"
    strokeLinejoin="round"
  />
  <path
    d="M21.81 17.108a.201.201 0 01.079-.079.225.225 0 01.223 0c.034.02.06.047.078.08l.924 1.72a.8.8 0 00.262.285c.111.074.24.122.376.14l2.066.278c.04.006.076.02.107.044.03.024.052.054.065.089a.18.18 0 01.004.107.192.192 0 01-.058.093l-1.494 1.337a.775.775 0 00-.215.317.72.72 0 00-.03.373l.353 1.89a.18.18 0 01-.012.106.198.198 0 01-.072.085.224.224 0 01-.224.014l-1.847-.892a.91.91 0 00-.79 0l-1.846.892a.227.227 0 01-.224-.014.197.197 0 01-.072-.085.18.18 0 01-.012-.107l.352-1.889a.721.721 0 00-.029-.373.774.774 0 00-.215-.317l-1.494-1.337a.192.192 0 01-.059-.093.18.18 0 01.004-.107.194.194 0 01.066-.09.221.221 0 01.106-.043l2.066-.277a.893.893 0 00.377-.141.802.802 0 00.262-.286l.923-1.72z"
    fill="#EDBD00"
  />
</svg>